<svg width="450" height="254" viewBox="0 0 450 254" fill="none" xmlns="http://www.w3.org/2000/svg">
    <path d="M20.4766 232.501C20.4766 220.626 115.841 211 233.473 211C351.119 211 446.477 220.628 446.477 232.501C446.477 244.372 351.119 254 233.473 254C115.842 254 20.4766 244.372 20.4766 232.501Z" fill="#E4EFFD"/>
    <path d="M378.037 105.36C371.797 113.52 365.157 122.4 358.117 132C351.077 141.6 345.157 151.44 340.357 161.52H378.037V105.36ZM413.077 61.68V161.52H430.837V190.8H413.077V228H378.037V190.8H306.277V164.64C309.797 157.6 314.197 149.68 319.477 140.88C324.757 131.92 330.597 122.8 336.997 113.52C343.557 104.08 350.437 94.88 357.637 85.92C364.837 76.96 372.037 68.88 379.237 61.68H413.077Z" fill="#334155"/>
    <mask id="mask0_769_4278" style="mask-type:luminance" maskUnits="userSpaceOnUse" x="137" y="59" width="201" height="169">
        <path d="M337.883 59H137.629V227.184H337.883V59Z" fill="white"/>
    </mask>
    <g mask="url(#mask0_769_4278)">
        <path d="M305 223.719C342.142 186.578 342.142 126.36 305 89.2186C267.859 52.0773 207.641 52.0774 170.5 89.2186C133.359 126.36 133.359 186.578 170.5 223.719C207.641 260.86 267.859 260.86 305 223.719Z" fill="#5D5D5D"/>
        <path d="M158.652 156.469C158.652 112.782 194.067 77.3672 237.752 77.3672C281.439 77.3672 316.855 112.782 316.855 156.469C316.855 200.157 281.439 235.571 237.752 235.571C194.067 235.571 158.652 200.157 158.652 156.469Z" fill="#4A4A4A"/>
        <path d="M237.754 224.006C200.514 224.006 170.219 193.709 170.219 156.469C170.219 119.23 200.514 88.9341 237.754 88.9341C274.995 88.9341 305.291 119.23 305.291 156.469C305.291 193.709 274.996 224.006 237.754 224.006ZM237.754 90.1161C201.167 90.1161 171.401 119.883 171.401 156.47C171.401 193.059 201.168 222.825 237.754 222.825C274.344 222.825 304.111 193.058 304.111 156.47C304.111 119.882 274.344 90.1161 237.754 90.1161Z" fill="#767676"/>
        <path d="M237.752 223.24C200.938 223.24 170.984 193.288 170.984 156.469C170.984 119.655 200.938 89.7012 237.752 89.7012C274.568 89.7012 304.524 119.654 304.524 156.469C304.524 193.288 274.569 223.24 237.752 223.24ZM237.752 90.2932C201.263 90.2932 171.574 119.979 171.574 156.469C171.574 192.961 201.262 222.649 237.752 222.649C274.245 222.649 303.932 192.961 303.932 156.469C303.932 119.98 274.245 90.2932 237.752 90.2932Z" fill="#3F3F3F"/>
        <path d="M237.754 241.578C190.824 241.578 152.648 203.398 152.648 156.469C152.648 109.54 190.825 71.3638 237.754 71.3638C284.685 71.3638 322.862 109.541 322.862 156.469C322.863 203.399 284.685 241.578 237.754 241.578ZM237.754 72.5428C191.478 72.5428 153.827 110.193 153.827 156.469C153.827 202.747 191.477 240.397 237.754 240.397C284.033 240.397 321.683 202.748 321.683 156.469C321.683 110.194 284.034 72.5428 237.754 72.5428Z" fill="#767676"/>
        <path d="M237.756 240.689C191.321 240.689 153.539 202.909 153.539 156.469C153.539 110.032 191.32 72.252 237.756 72.252C284.195 72.252 321.974 110.032 321.974 156.469C321.974 202.909 284.195 240.689 237.756 240.689ZM237.756 72.846C191.645 72.846 154.13 110.359 154.13 156.469C154.13 202.582 191.645 240.096 237.756 240.096C283.87 240.096 321.384 202.582 321.384 156.469C321.384 110.359 283.871 72.846 237.756 72.846Z" fill="#3F3F3F"/>
        <path d="M287.828 226.803L286.574 238.058C287.138 237.721 287.698 237.376 288.254 237.031L288.603 226.357L287.828 226.803Z" fill="#4A4A4A"/>
        <path d="M298.512 217.256L299.276 228.96C300.704 227.744 302.105 226.48 303.478 225.163L301.043 214.725L298.512 217.256Z" fill="#4A4A4A"/>
        <path d="M304.324 211.446L306.026 222.642C306.482 222.169 306.935 221.694 307.379 221.213L304.954 210.815L304.324 211.446Z" fill="#4A4A4A"/>
        <path d="M312.176 199.458L315.941 210.566C317.009 209.022 318.034 207.437 319.02 205.809L313.966 196.357L312.176 199.458Z" fill="#4A4A4A"/>
        <path d="M316.285 192.342L320.825 202.715C321.144 202.143 321.458 201.565 321.764 200.985L316.729 191.569L316.285 192.342Z" fill="#4A4A4A"/>
        <path d="M320.766 178.731L327.278 188.487C327.91 186.718 328.49 184.921 329.021 183.093L321.692 175.274L320.766 178.731Z" fill="#4A4A4A"/>
        <path d="M322.891 170.795L329.962 179.638C330.123 179.001 330.276 178.364 330.421 177.723L323.119 169.932L322.891 170.795Z" fill="#4A4A4A"/>
        <path d="M323.695 156.487L332.512 164.223C332.663 162.352 332.759 160.468 332.799 158.565L323.696 152.906L323.695 156.487Z" fill="#4A4A4A"/>
        <path d="M323.696 148.27L332.816 154.983C332.805 154.327 332.79 153.669 332.763 153.015L323.695 147.378L323.696 148.27Z" fill="#4A4A4A"/>
        <path d="M320.773 134.241L331.293 139.433C330.953 137.587 330.558 135.741 330.105 133.892L319.848 130.783L320.773 134.241Z" fill="#4A4A4A"/>
        <path d="M318.646 126.303L329.192 130.428C329.014 129.797 328.827 129.166 328.631 128.541L318.414 125.441L318.646 126.303Z" fill="#4A4A4A"/>
        <path d="M312.188 113.509L323.69 115.802C322.885 114.108 322.025 112.428 321.11 110.76L310.398 110.41L312.188 113.509Z" fill="#4A4A4A"/>
        <path d="M308.079 106.394L319.334 107.65C318.999 107.087 318.654 106.525 318.304 105.969L307.633 105.624L308.079 106.394Z" fill="#4A4A4A"/>
        <path d="M298.53 95.7082L310.237 94.9452C309.021 93.5152 307.755 92.1152 306.439 90.7402L296 93.1762L298.53 95.7082Z" fill="#4A4A4A"/>
        <path d="M292.722 89.8973L303.916 88.1993C303.447 87.7403 302.97 87.2883 302.487 86.8433L292.09 89.2693L292.722 89.8973Z" fill="#4A4A4A"/>
        <path d="M280.732 82.0451L291.843 78.2801C290.297 77.2151 288.712 76.1891 287.084 75.2031L277.633 80.2571L280.732 82.0451Z" fill="#4A4A4A"/>
        <path d="M273.617 77.938L283.992 73.398C283.418 73.078 282.841 72.765 282.26 72.458L272.844 77.492L273.617 77.938Z" fill="#4A4A4A"/>
        <path d="M260.007 73.4581L269.766 66.9441C267.996 66.3131 266.201 65.7341 264.373 65.2031L256.551 72.5281L260.007 73.4581Z" fill="#4A4A4A"/>
        <path d="M252.071 71.3293L260.916 64.2623C260.282 64.1013 259.642 63.9482 259.002 63.8022L251.211 71.1012L252.071 71.3293Z" fill="#4A4A4A"/>
        <path d="M237.761 70.5264L245.5 61.7104C243.627 61.5584 241.744 61.4624 239.841 61.4224L234.18 70.5254L237.761 70.5264Z" fill="#4A4A4A"/>
        <path d="M229.546 70.5242L236.259 61.4092C235.604 61.4162 234.946 61.4342 234.29 61.4592L228.652 70.5262L229.546 70.5242Z" fill="#4A4A4A"/>
        <path d="M215.515 73.4521L220.71 62.9321C218.862 63.2721 217.018 63.6641 215.169 64.1201L212.059 74.3781L215.515 73.4521Z" fill="#4A4A4A"/>
        <path d="M207.578 75.5782L211.702 65.0322C211.071 65.2102 210.442 65.3982 209.814 65.5932L206.715 75.8092L207.578 75.5782Z" fill="#4A4A4A"/>
        <path d="M194.786 82.0352L197.081 70.5312C195.385 71.3363 193.706 72.1913 192.038 73.1113L191.688 83.8253L194.786 82.0352Z" fill="#4A4A4A"/>
        <path d="M187.671 86.1412L188.927 74.8892C188.362 75.2252 187.803 75.5692 187.247 75.9182L186.898 86.5882L187.671 86.1412Z" fill="#4A4A4A"/>
        <path d="M176.984 95.6893L176.221 83.9873C174.788 85.2013 173.392 86.4643 172.02 87.7823L174.451 98.2213L176.984 95.6893Z" fill="#4A4A4A"/>
        <path d="M171.173 101.5L169.473 90.3062C169.014 90.7782 168.566 91.2522 168.117 91.7352L170.543 102.131L171.173 101.5Z" fill="#4A4A4A"/>
        <path d="M163.322 113.491L159.558 102.379C158.489 103.925 157.464 105.506 156.48 107.136L161.531 116.589L163.322 113.491Z" fill="#4A4A4A"/>
        <path d="M159.214 120.604L154.675 110.231C154.353 110.803 154.041 111.381 153.734 111.961L158.769 121.377L159.214 120.604Z" fill="#4A4A4A"/>
        <path d="M154.735 134.216L148.222 124.46C147.589 126.227 147.009 128.023 146.48 129.85L153.807 137.673L154.735 134.216Z" fill="#4A4A4A"/>
        <path d="M152.607 142.151L145.537 133.309C145.376 133.945 145.225 134.582 145.078 135.223L152.375 143.016L152.607 142.151Z" fill="#4A4A4A"/>
        <path d="M151.804 156.461L142.988 148.723C142.834 150.593 142.739 152.476 142.699 154.377L151.803 160.039L151.804 156.461Z" fill="#4A4A4A"/>
        <path d="M151.804 164.675L142.684 157.962C142.693 158.619 142.713 159.276 142.735 159.93L151.802 165.57L151.804 164.675Z" fill="#4A4A4A"/>
        <path d="M154.731 178.707L144.211 173.511C144.547 175.359 144.943 177.205 145.397 179.052L155.655 182.165L154.731 178.707Z" fill="#4A4A4A"/>
        <path d="M156.857 186.641L146.312 182.517C146.492 183.149 146.68 183.776 146.87 184.406L157.085 187.507L156.857 186.641Z" fill="#4A4A4A"/>
        <path d="M163.312 199.437L151.805 197.141C152.609 198.837 153.47 200.517 154.385 202.183L165.098 202.536L163.312 199.437Z" fill="#4A4A4A"/>
        <path d="M167.419 206.55L156.164 205.296C156.501 205.86 156.848 206.417 157.193 206.977L167.863 207.325L167.419 206.55Z" fill="#4A4A4A"/>
        <path d="M176.967 217.237L165.258 217.997C166.475 219.428 167.739 220.83 169.055 222.202L179.495 219.77L176.967 217.237Z" fill="#4A4A4A"/>
        <path d="M182.775 223.047L171.578 224.748C172.051 225.207 172.529 225.654 173.009 226.103L183.407 223.681L182.775 223.047Z" fill="#4A4A4A"/>
        <path d="M172.762 156.469C172.762 120.576 201.863 91.4771 237.755 91.4771C273.652 91.4771 302.749 120.577 302.749 156.469C302.749 192.365 273.652 221.463 237.755 221.463C201.863 221.463 172.762 192.365 172.762 156.469Z" fill="#334155"/>
        <path d="M237.622 83.051C236.62 85.06 235.819 86.806 235.508 87.628C235.975 86.886 236.886 85.19 237.885 83.18C238.887 81.172 239.689 79.422 239.998 78.604C239.533 79.346 238.621 81.041 237.622 83.051Z" fill="#5D5D5D"/>
        <path d="M233.012 83.2032C232.139 85.2722 231.449 87.0672 231.188 87.9052C231.609 87.1342 232.412 85.3862 233.282 83.3172C234.155 81.2512 234.848 79.4562 235.105 78.6182C234.685 79.3872 233.883 81.1362 233.012 83.2032Z" fill="#5D5D5D"/>
        <path d="M228.422 83.647C227.681 85.764 227.104 87.6 226.898 88.452C227.27 87.656 227.962 85.862 228.699 83.744C229.442 81.625 230.019 79.791 230.224 78.938C229.854 79.731 229.162 81.529 228.422 83.647Z" fill="#5D5D5D"/>
        <path d="M223.867 84.3769C223.262 86.5369 222.803 88.4029 222.648 89.2699C222.966 88.4519 223.544 86.6159 224.15 84.4559C224.757 82.2949 225.218 80.4269 225.369 79.5649C225.051 80.3789 224.472 82.2169 223.867 84.3769Z" fill="#5D5D5D"/>
        <path d="M219.369 85.3911C218.898 87.5861 218.558 89.4781 218.457 90.3501C218.728 89.5161 219.187 87.6471 219.656 85.4521C220.126 83.2581 220.469 81.3651 220.565 80.4951C220.297 81.3271 219.837 83.1971 219.369 85.3911Z" fill="#5D5D5D"/>
        <path d="M214.941 86.6881C214.612 88.9051 214.389 90.8171 214.344 91.6941C214.561 90.8431 214.901 88.9511 215.233 86.7301C215.565 84.5091 215.787 82.5981 215.829 81.7231C215.614 82.5711 215.271 84.4681 214.941 86.6881Z" fill="#5D5D5D"/>
        <path d="M210.607 88.2601C210.418 90.4941 210.315 92.4121 210.325 93.2901C210.489 92.4301 210.71 90.5191 210.901 88.2821C211.091 86.0421 211.193 84.1251 211.181 83.2461C211.019 84.1091 210.797 86.0221 210.607 88.2601Z" fill="#5D5D5D"/>
        <path d="M206.376 90.0981C206.325 92.3411 206.346 94.2651 206.409 95.1371C206.517 94.2701 206.621 92.3481 206.67 90.1051C206.721 87.8601 206.701 85.9351 206.634 85.0601C206.528 85.9311 206.426 87.8541 206.376 90.0981Z" fill="#5D5D5D"/>
        <path d="M202.27 92.2018C202.362 94.4408 202.5 96.3598 202.62 97.2268C202.675 96.3538 202.658 94.4288 202.565 92.1878C202.476 89.9438 202.335 88.0258 202.212 87.1548C202.16 88.0318 202.179 89.9568 202.27 92.2018Z" fill="#5D5D5D"/>
        <path d="M198.304 94.5569C198.538 96.7859 198.798 98.6919 198.972 99.5509C198.971 98.6749 198.83 96.7549 198.599 94.5249C198.368 92.2909 198.108 90.3839 197.93 89.5239C197.933 90.4029 198.073 92.3229 198.304 94.5569Z" fill="#5D5D5D"/>
        <path d="M194.495 97.1572C194.87 99.3662 195.247 101.254 195.475 102.1C195.417 101.225 195.159 99.3152 194.788 97.1062C194.417 94.8912 194.034 93.0042 193.805 92.1582C193.865 93.0322 194.123 94.9412 194.495 97.1572Z" fill="#5D5D5D"/>
        <path d="M190.858 99.9889C191.37 102.172 191.865 104.031 192.146 104.862C192.035 103.993 191.655 102.104 191.147 99.9209C190.637 97.7349 190.138 95.8769 189.855 95.0439C189.969 95.9139 190.347 97.8039 190.858 99.9889Z" fill="#5D5D5D"/>
        <path d="M187.406 103.045C188.054 105.191 188.662 107.015 188.997 107.826C188.831 106.967 188.332 105.105 187.688 102.96C187.042 100.809 186.428 98.9849 186.094 98.1729C186.261 99.0349 186.757 100.899 187.406 103.045Z" fill="#5D5D5D"/>
        <path d="M184.149 106.313C184.93 108.413 185.655 110.198 186.037 110.987C185.817 110.137 185.203 108.311 184.428 106.212C183.646 104.105 182.919 102.324 182.535 101.534C182.756 102.383 183.369 104.209 184.149 106.313Z" fill="#5D5D5D"/>
        <path d="M181.107 109.779C182.018 111.825 182.853 113.561 183.286 114.325C183.013 113.493 182.285 111.707 181.377 109.657C180.467 107.605 179.628 105.872 179.195 105.108C179.47 105.944 180.196 107.728 181.107 109.779Z" fill="#5D5D5D"/>
        <path d="M178.288 113.428C179.326 115.412 180.267 117.092 180.749 117.827C180.424 117.013 179.584 115.278 178.551 113.289C177.514 111.299 176.568 109.623 176.086 108.887C176.413 109.704 177.251 111.441 178.288 113.428Z" fill="#5D5D5D"/>
        <path d="M175.701 117.248C176.86 119.165 177.906 120.782 178.431 121.485C178.056 120.691 177.111 119.013 175.952 117.092C174.791 115.172 173.743 113.559 173.219 112.854C173.596 113.647 174.539 115.329 175.701 117.248Z" fill="#5D5D5D"/>
        <path d="M173.361 121.219C174.639 123.063 175.785 124.609 176.354 125.28C175.929 124.512 174.879 122.895 173.605 121.05C172.325 119.209 171.176 117.662 170.609 116.992C171.034 117.762 172.084 119.379 173.361 121.219Z" fill="#5D5D5D"/>
        <path d="M171.275 125.335C172.668 127.09 173.907 128.565 174.516 129.198C174.042 128.458 172.893 126.91 171.506 125.148C170.113 123.391 168.869 121.919 168.262 121.286C168.735 122.029 169.885 123.578 171.275 125.335Z" fill="#5D5D5D"/>
        <path d="M169.452 129.571C170.953 131.236 172.281 132.631 172.929 133.224C172.411 132.514 171.165 131.04 169.672 129.372C168.17 127.705 166.837 126.313 166.191 125.721C166.71 126.43 167.953 127.903 169.452 129.571Z" fill="#5D5D5D"/>
        <path d="M167.894 133.913C169.498 135.481 170.911 136.788 171.594 137.34C171.033 136.665 169.698 135.275 168.103 133.7C166.499 132.133 165.083 130.827 164.398 130.276C164.961 130.953 166.297 132.344 167.894 133.913Z" fill="#5D5D5D"/>
        <path d="M166.617 138.345C168.314 139.809 169.808 141.024 170.526 141.533C169.924 140.892 168.503 139.59 166.811 138.117C165.112 136.654 163.617 135.439 162.898 134.931C163.504 135.572 164.924 136.879 166.617 138.345Z" fill="#5D5D5D"/>
        <path d="M165.619 142.847C167.404 144.202 168.973 145.322 169.721 145.785C169.08 145.182 167.578 143.971 165.799 142.61C164.011 141.255 162.443 140.138 161.695 139.677C162.338 140.278 163.838 141.492 165.619 142.847Z" fill="#5D5D5D"/>
        <path d="M164.906 147.404C166.774 148.643 168.41 149.661 169.185 150.079C168.508 149.516 166.934 148.403 165.071 147.157C163.203 145.915 161.564 144.9 160.793 144.486C161.472 145.043 163.045 146.165 164.906 147.404Z" fill="#5D5D5D"/>
        <path d="M164.482 151.997C166.422 153.117 168.119 154.028 168.922 154.396C168.207 153.88 166.568 152.866 164.632 151.738C162.688 150.617 160.989 149.705 160.191 149.342C160.907 149.858 162.546 150.875 164.482 151.997Z" fill="#5D5D5D"/>
        <path d="M164.345 156.608C166.355 157.604 168.106 158.407 168.927 158.724C168.184 158.251 166.484 157.343 164.48 156.339C162.469 155.341 160.719 154.539 159.898 154.226C160.643 154.697 162.344 155.608 164.345 156.608Z" fill="#5D5D5D"/>
        <path d="M164.496 161.216C166.565 162.084 168.36 162.779 169.203 163.041C168.432 162.615 166.677 161.816 164.613 160.941C162.543 160.071 160.746 159.382 159.91 159.122C160.681 159.541 162.436 160.346 164.496 161.216Z" fill="#5D5D5D"/>
        <path d="M164.942 165.808C167.061 166.543 168.898 167.124 169.753 167.333C168.957 166.958 167.156 166.27 165.043 165.526C162.922 164.787 161.084 164.212 160.234 164.006C161.028 164.375 162.832 165.069 164.942 165.808Z" fill="#5D5D5D"/>
        <path d="M165.672 170.362C167.832 170.964 169.7 171.426 170.568 171.583C169.75 171.257 167.911 170.685 165.755 170.075C163.59 169.468 161.723 169.012 160.859 168.858C161.677 169.179 163.523 169.758 165.672 170.362Z" fill="#5D5D5D"/>
        <path d="M166.687 174.862C168.878 175.325 170.773 175.672 171.65 175.77C170.812 175.498 168.94 175.042 166.75 174.569C164.553 174.1 162.657 173.76 161.789 173.662C162.624 173.93 164.501 174.395 166.687 174.862Z" fill="#5D5D5D"/>
        <path d="M167.984 179.289C170.202 179.611 172.116 179.839 172.996 179.884C172.142 179.663 170.243 179.327 168.032 178.991C165.806 178.662 163.897 178.445 163.02 178.397C163.872 178.614 165.775 178.959 167.984 179.289Z" fill="#5D5D5D"/>
        <path d="M169.552 183.623C171.784 183.811 173.71 183.915 174.589 183.902C173.726 183.74 171.809 183.521 169.581 183.324C167.339 183.135 165.419 183.039 164.539 183.048C165.407 183.208 167.326 183.435 169.552 183.623Z" fill="#5D5D5D"/>
        <path d="M171.394 187.853C173.634 187.897 175.562 187.882 176.439 187.816C175.566 187.708 173.639 187.608 171.402 187.552C169.155 187.506 167.232 187.529 166.355 187.59C167.229 187.702 169.162 187.806 171.394 187.853Z" fill="#5D5D5D"/>
        <path d="M173.496 191.959C175.731 191.862 177.656 191.725 178.527 191.605C177.649 191.55 175.72 191.573 173.483 191.656C171.239 191.751 169.321 191.896 168.449 192.012C169.328 192.067 171.263 192.052 173.496 191.959Z" fill="#5D5D5D"/>
        <path d="M175.851 195.924C178.08 195.688 179.989 195.43 180.853 195.254C179.972 195.256 178.048 195.4 175.822 195.623C173.588 195.859 171.683 196.123 170.82 196.296C171.701 196.294 173.63 196.156 175.851 195.924Z" fill="#5D5D5D"/>
        <path d="M178.449 199.735C180.659 199.359 182.55 198.982 183.4 198.753C182.522 198.81 180.61 199.073 178.401 199.438C176.185 199.812 174.302 200.197 173.453 200.422C174.332 200.363 176.247 200.104 178.449 199.735Z" fill="#5D5D5D"/>
        <path d="M181.283 203.374C183.466 202.859 185.328 202.366 186.164 202.081C185.291 202.194 183.397 202.574 181.218 203.078C179.029 203.593 177.175 204.095 176.34 204.371C177.212 204.259 179.109 203.881 181.283 203.374Z" fill="#5D5D5D"/>
        <path d="M184.338 206.828C186.484 206.178 188.311 205.567 189.128 205.232C188.263 205.398 186.4 205.897 184.255 206.54C182.102 207.186 180.283 207.806 179.469 208.134C180.333 207.968 182.202 207.469 184.338 206.828Z" fill="#5D5D5D"/>
        <path d="M187.605 210.083C189.706 209.299 191.491 208.575 192.286 208.189C191.432 208.41 189.604 209.025 187.504 209.799C185.398 210.58 183.62 211.314 182.828 211.692C183.678 211.471 185.513 210.857 187.605 210.083Z" fill="#5D5D5D"/>
        <path d="M191.071 213.125C193.119 212.212 194.855 211.378 195.623 210.941C194.785 211.218 193 211.943 190.95 212.849C188.898 213.763 187.167 214.603 186.402 215.032C187.237 214.757 189.032 214.03 191.071 213.125Z" fill="#5D5D5D"/>
        <path d="M194.72 215.944C196.709 214.905 198.388 213.962 199.128 213.48C198.31 213.807 196.572 214.645 194.586 215.678C192.595 216.718 190.922 217.665 190.184 218.142C190.999 217.816 192.745 216.977 194.72 215.944Z" fill="#5D5D5D"/>
        <path d="M219.641 227.612C221.104 225.915 222.323 224.421 222.829 223.698C222.19 224.304 220.884 225.722 219.415 227.414C217.948 229.114 216.74 230.612 216.23 231.325C216.867 230.723 218.183 229.301 219.641 227.612Z" fill="#5D5D5D"/>
        <path d="M224.147 228.611C225.5 226.824 226.621 225.257 227.08 224.504C226.478 225.149 225.267 226.645 223.907 228.425C222.549 230.216 221.441 231.788 220.973 232.53C221.572 231.887 222.796 230.386 224.147 228.611Z" fill="#5D5D5D"/>
        <path d="M228.702 229.325C229.943 227.454 230.962 225.82 231.373 225.04C230.813 225.723 229.698 227.29 228.452 229.154C227.21 231.025 226.201 232.664 225.781 233.432C226.338 232.756 227.465 231.18 228.702 229.325Z" fill="#5D5D5D"/>
        <path d="M233.296 229.749C234.415 227.805 235.329 226.109 235.689 225.307C235.173 226.022 234.16 227.657 233.032 229.594C231.911 231.539 231.009 233.24 230.637 234.033C231.15 233.321 232.175 231.679 233.296 229.749Z" fill="#5D5D5D"/>
        <path d="M237.904 229.886C238.9 227.874 239.706 226.124 240.014 225.301C239.548 226.047 238.638 227.742 237.632 229.745C236.635 231.758 235.841 233.512 235.52 234.326C235.989 233.584 236.909 231.881 237.904 229.886Z" fill="#5D5D5D"/>
        <path d="M242.513 229.733C243.381 227.663 244.077 225.866 244.331 225.025C243.911 225.796 243.112 227.547 242.233 229.612C241.364 231.681 240.682 233.481 240.414 234.316C240.833 233.542 241.646 231.786 242.513 229.733Z" fill="#5D5D5D"/>
        <path d="M247.106 229.29C247.842 227.17 248.421 225.334 248.624 224.476C248.256 225.276 247.565 227.071 246.819 229.184C246.081 231.309 245.513 233.147 245.297 233.996C245.667 233.198 246.37 231.395 247.106 229.29Z" fill="#5D5D5D"/>
        <path d="M251.66 228.559C252.26 226.397 252.724 224.528 252.875 223.661C252.555 224.481 251.979 226.317 251.367 228.474C250.763 230.638 250.313 232.51 250.152 233.37C250.469 232.55 251.057 230.706 251.66 228.559Z" fill="#5D5D5D"/>
        <path d="M284.673 212.946C284.155 210.764 283.664 208.903 283.375 208.066C283.493 208.941 283.872 210.831 284.372 213.012C284.887 215.2 285.396 217.055 285.665 217.887C285.552 217.014 285.178 215.12 284.673 212.946Z" fill="#5D5D5D"/>
        <path d="M288.125 209.887C287.471 207.742 286.864 205.918 286.523 205.101C286.695 205.967 287.192 207.827 287.832 209.973C288.479 212.123 289.104 213.945 289.428 214.76C289.259 213.895 288.764 212.024 288.125 209.887Z" fill="#5D5D5D"/>
        <path d="M291.38 206.621C290.594 204.519 289.873 202.737 289.48 201.943C289.706 202.8 290.32 204.622 291.092 206.724C291.874 208.829 292.613 210.606 292.984 211.402C292.763 210.548 292.152 208.713 291.38 206.621Z" fill="#5D5D5D"/>
        <path d="M294.424 203.156C293.508 201.108 292.676 199.375 292.234 198.606C292.512 199.445 293.24 201.225 294.142 203.276C295.055 205.329 295.905 207.054 296.325 207.824C296.05 206.988 295.326 205.195 294.424 203.156Z" fill="#5D5D5D"/>
        <path d="M297.245 199.505C296.202 197.519 295.263 195.841 294.773 195.102C295.104 195.923 295.942 197.654 296.971 199.642C298.012 201.633 298.968 203.305 299.435 204.045C299.108 203.227 298.273 201.483 297.245 199.505Z" fill="#5D5D5D"/>
        <path d="M299.832 195.685C298.667 193.768 297.623 192.153 297.09 191.445C297.47 192.245 298.415 193.919 299.568 195.841C300.732 197.762 301.794 199.372 302.303 200.08C301.925 199.284 300.982 197.594 299.832 195.685Z" fill="#5D5D5D"/>
        <path d="M302.173 191.711C300.889 189.871 299.747 188.322 299.168 187.651C299.6 188.423 300.651 190.037 301.92 191.88C303.204 193.727 304.359 195.264 304.914 195.941C304.489 195.17 303.439 193.542 302.173 191.711Z" fill="#5D5D5D"/>
        <path d="M304.258 187.597C302.863 185.841 301.625 184.369 301.008 183.736C301.485 184.479 302.634 186.021 304.016 187.784C305.413 189.545 306.664 191.006 307.262 191.647C306.787 190.903 305.638 189.345 304.258 187.597Z" fill="#5D5D5D"/>
        <path d="M306.08 183.36C304.576 181.696 303.25 180.304 302.59 179.712C303.117 180.422 304.36 181.891 305.85 183.564C307.355 185.235 308.697 186.612 309.332 187.214C308.813 186.5 307.567 185.018 306.08 183.36Z" fill="#5D5D5D"/>
        <path d="M307.634 179.016C306.03 177.451 304.618 176.145 303.922 175.593C304.491 176.271 305.825 177.659 307.416 179.234C309.025 180.805 310.448 182.097 311.122 182.659C310.558 181.981 309.222 180.578 307.634 179.016Z" fill="#5D5D5D"/>
        <path d="M308.915 174.586C307.214 173.12 305.721 171.909 304.992 171.404C305.602 172.041 307.02 173.342 308.708 174.813C310.414 176.281 311.914 177.482 312.62 177.999C312.018 177.359 310.593 176.045 308.915 174.586Z" fill="#5D5D5D"/>
        <path d="M309.911 170.082C308.122 168.728 306.557 167.61 305.797 167.151C306.448 167.752 307.944 168.96 309.72 170.322C311.514 171.682 313.087 172.786 313.825 173.26C313.183 172.656 311.678 171.434 309.911 170.082Z" fill="#5D5D5D"/>
        <path d="M310.625 165.524C308.754 164.287 307.121 163.269 306.336 162.859C307.022 163.417 308.591 164.528 310.449 165.778C312.325 167.02 313.964 168.024 314.728 168.45C314.052 167.888 312.474 166.764 310.625 165.524Z" fill="#5D5D5D"/>
        <path d="M311.05 160.931C309.105 159.813 307.412 158.902 306.602 158.541C307.323 159.053 308.956 160.064 310.89 161.195C312.84 162.317 314.539 163.216 315.331 163.591C314.619 163.076 312.972 162.054 311.05 160.931Z" fill="#5D5D5D"/>
        <path d="M311.182 156.32C309.174 155.325 307.426 154.523 306.594 154.216C307.347 154.681 309.043 155.589 311.042 156.595C313.058 157.591 314.811 158.383 315.625 158.708C314.879 158.238 313.176 157.321 311.182 156.32Z" fill="#5D5D5D"/>
        <path d="M311.028 151.709C308.961 150.844 307.166 150.151 306.316 149.896C307.094 150.314 308.844 151.114 310.903 151.993C312.981 152.862 314.777 153.539 315.611 153.814C314.839 153.391 313.079 152.583 311.028 151.709Z" fill="#5D5D5D"/>
        <path d="M310.585 147.12C308.469 146.386 306.632 145.806 305.77 145.607C306.576 145.973 308.37 146.662 310.479 147.411C312.608 148.145 314.443 148.709 315.292 148.932C314.496 148.559 312.688 147.861 310.585 147.12Z" fill="#5D5D5D"/>
        <path d="M309.858 142.565C307.698 141.967 305.828 141.504 304.953 141.359C305.78 141.673 307.616 142.247 309.768 142.862C311.937 143.464 313.804 143.909 314.666 144.08C313.847 143.756 311.999 143.174 309.858 142.565Z" fill="#5D5D5D"/>
        <path d="M308.842 138.065C306.651 137.603 304.754 137.259 303.871 137.169C304.717 137.433 306.586 137.891 308.77 138.367C310.976 138.832 312.865 139.159 313.736 139.274C312.901 139.005 311.019 138.538 308.842 138.065Z" fill="#5D5D5D"/>
        <path d="M307.544 133.637C305.328 133.317 303.414 133.091 302.527 133.055C303.389 133.267 305.281 133.604 307.496 133.945C309.724 134.271 311.63 134.477 312.507 134.539C311.652 134.321 309.749 133.974 307.544 133.637Z" fill="#5D5D5D"/>
        <path d="M305.973 129.301C303.741 129.118 301.819 129.014 300.93 129.033C301.802 129.189 303.713 129.408 305.943 129.609C308.187 129.794 310.104 129.882 310.983 129.887C310.118 129.724 308.194 129.497 305.973 129.301Z" fill="#5D5D5D"/>
        <path d="M304.135 125.073C301.897 125.031 299.968 125.047 299.086 125.122C299.965 125.224 301.886 125.321 304.121 125.382C306.374 125.425 308.293 125.394 309.171 125.345C308.295 125.235 306.363 125.129 304.135 125.073Z" fill="#5D5D5D"/>
        <path d="M302.03 120.965C299.795 121.065 297.872 121.202 296.996 121.334C297.879 121.379 299.803 121.355 302.04 121.275C304.288 121.177 306.203 121.024 307.073 120.921C306.194 120.868 304.258 120.883 302.03 120.965Z" fill="#5D5D5D"/>
        <path d="M299.674 117C297.448 117.239 295.539 117.496 294.672 117.683C295.556 117.675 297.477 117.531 299.701 117.312C301.939 117.071 303.842 116.798 304.704 116.639C303.826 116.639 301.892 116.778 299.674 117Z" fill="#5D5D5D"/>
        <path d="M297.078 113.19C294.87 113.569 292.98 113.946 292.129 114.186C293.012 114.12 294.915 113.858 297.125 113.499C299.344 113.119 301.226 112.727 302.076 112.515C301.198 112.569 299.278 112.829 297.078 113.19Z" fill="#5D5D5D"/>
        <path d="M294.24 109.551C292.062 110.068 290.198 110.563 289.363 110.856C290.239 110.735 292.123 110.353 294.307 109.856C296.494 109.336 298.348 108.828 299.186 108.564C298.312 108.673 296.412 109.053 294.24 109.551Z" fill="#5D5D5D"/>
        <path d="M291.184 106.097C289.043 106.75 287.214 107.362 286.398 107.705C287.266 107.533 289.122 107.029 291.271 106.397C293.421 105.741 295.24 105.119 296.058 104.8C295.193 104.963 293.321 105.462 291.184 106.097Z" fill="#5D5D5D"/>
        <path d="M287.915 102.842C285.821 103.627 284.034 104.354 283.242 104.748C284.097 104.52 285.919 103.9 288.02 103.139C290.127 102.349 291.905 101.611 292.7 101.244C291.846 101.458 290.009 102.075 287.915 102.842Z" fill="#5D5D5D"/>
        <path d="M284.447 99.7978C282.404 100.715 280.667 101.548 279.902 101.996C280.74 101.714 282.522 100.98 284.571 100.088C286.624 99.1648 288.349 98.3168 289.122 97.9038C288.282 98.1708 286.489 98.9008 284.447 99.7978Z" fill="#5D5D5D"/>
        <path d="M280.797 96.9789C278.816 98.0219 277.133 98.9639 276.398 99.4559C277.217 99.1239 278.948 98.2809 280.938 97.2589C282.929 96.2099 284.599 95.2569 285.345 94.7959C284.521 95.1119 282.778 95.9559 280.797 96.9789Z" fill="#5D5D5D"/>
        <path d="M276.979 94.3937C275.066 95.5577 273.447 96.6047 272.742 97.1437C273.541 96.7587 275.217 95.8067 277.138 94.6657C279.058 93.4917 280.665 92.4367 281.38 91.9277C280.579 92.2967 278.892 93.2487 276.979 94.3937Z" fill="#5D5D5D"/>
        <path d="M273.002 92.0539C271.17 93.3349 269.618 94.4819 268.949 95.0649C269.719 94.6279 271.331 93.5769 273.178 92.3149C275.022 91.0229 276.558 89.8699 277.239 89.3169C276.464 89.7369 274.841 90.7889 273.002 92.0539Z" fill="#5D5D5D"/>
        <path d="M268.886 89.9677C267.138 91.3637 265.663 92.6047 265.031 93.2267C265.773 92.7447 267.315 91.5938 269.08 90.2168C270.838 88.8128 272.3 87.5638 272.946 86.9688C272.199 87.4358 270.641 88.5917 268.886 89.9677Z" fill="#5D5D5D"/>
        <path d="M264.65 88.1469C262.993 89.6489 261.599 90.9799 261.008 91.6399C261.717 91.1099 263.184 89.8659 264.858 88.3819C266.527 86.8679 267.906 85.5309 268.511 84.8989C267.796 85.4109 266.316 86.6609 264.65 88.1469Z" fill="#5D5D5D"/>
        <path d="M260.31 86.5909C258.749 88.1959 257.44 89.6119 256.895 90.3089C257.568 89.7349 258.954 88.3999 260.533 86.8149C262.101 85.1979 263.393 83.7799 263.961 83.1089C263.278 83.6639 261.879 85.0059 260.31 86.5909Z" fill="#5D5D5D"/>
        <path d="M255.876 85.3149C254.417 87.0139 253.202 88.5079 252.699 89.2389C253.338 88.6219 254.636 87.2019 256.111 85.5239C257.576 83.8119 258.777 82.3139 259.3 81.6099C258.653 82.2069 257.34 83.6329 255.876 85.3149Z" fill="#5D5D5D"/>
        <path d="M251.372 84.3168C250.024 86.1038 248.903 87.6738 248.449 88.4338C249.046 87.7778 250.253 86.2798 251.62 84.5108C252.975 82.7118 254.078 81.1398 254.557 80.4028C253.948 81.0408 252.728 82.5468 251.372 84.3168Z" fill="#5D5D5D"/>
        <path d="M246.814 83.605C245.581 85.473 244.563 87.108 244.156 87.895C244.713 87.204 245.821 85.633 247.075 83.782C248.313 81.9 249.318 80.265 249.748 79.499C249.179 80.172 248.057 81.753 246.814 83.605Z" fill="#5D5D5D"/>
        <path d="M242.224 83.18C241.112 85.121 240.196 86.818 239.84 87.63C240.35 86.902 241.361 85.268 242.494 83.342C243.612 81.383 244.512 79.69 244.893 78.897C244.37 79.607 243.348 81.254 242.224 83.18Z" fill="#5D5D5D"/>
        <path d="M237.755 221.463C273.652 221.463 302.749 192.364 302.749 156.469C302.749 120.576 273.652 91.4771 237.755 91.4771C201.863 91.4771 172.762 120.577 172.762 156.469C172.762 192.365 201.863 221.463 237.755 221.463ZM299.322 154.1C299.322 154.1 299.7 165.356 296.396 175.525C293.092 185.692 286.172 194.577 286.172 194.577C282.829 198.506 277.867 198.354 275.151 194.235C272.429 190.116 267.667 182.91 264.573 178.221L259.24 170.146C256.143 165.461 257.916 160.008 263.176 158.036L272.234 154.637C277.497 152.665 285.584 149.633 290.206 147.9C294.826 146.165 298.929 148.957 299.322 154.1ZM254.528 97.1871C254.528 97.1871 265.347 100.303 273.999 106.588C282.649 112.873 288.962 122.2 288.962 122.2C291.663 126.595 289.985 131.264 285.23 132.577C280.472 133.891 272.147 136.193 266.729 137.688L257.404 140.265C251.989 141.762 247.35 138.392 247.101 132.779L246.668 123.111C246.419 117.499 246.032 108.87 245.814 103.939C245.59 99.0081 249.513 95.9701 254.528 97.1871ZM244.125 181.129L250.154 188.694C253.659 193.087 259.039 199.841 262.117 203.704C265.192 207.562 263.805 212.327 259.035 214.291C259.035 214.291 248.446 218.128 237.755 218.128C227.063 218.128 216.477 214.291 216.477 214.291C211.706 212.327 210.32 207.562 213.395 203.704C216.472 199.842 221.854 193.087 225.357 188.694L231.386 181.129C234.889 176.737 240.623 176.737 244.125 181.129ZM186.557 122.201C186.557 122.201 192.865 112.874 201.516 106.589C210.167 100.303 220.988 97.1841 220.988 97.1841C226.002 95.9721 229.924 99.0091 229.704 103.939C229.484 108.871 229.1 117.5 228.85 123.113L228.416 132.781C228.167 138.391 223.528 141.761 218.113 140.266L208.788 137.69C203.369 136.193 195.044 133.891 190.289 132.577C185.531 131.264 183.852 126.592 186.557 122.201ZM185.308 147.895C189.928 149.63 198.017 152.661 203.279 154.635L212.339 158.032C217.6 160.007 219.372 165.457 216.274 170.145L210.941 178.219C207.844 182.909 203.084 190.115 200.364 194.233C197.644 198.352 192.684 198.504 189.343 194.573C189.343 194.573 182.423 185.692 179.119 175.525C175.815 165.355 176.191 154.097 176.191 154.097C176.587 148.957 180.689 146.163 185.308 147.895Z" fill="#E0E0E0"/>
        <path d="M234.066 141.212C234.066 139.175 235.719 137.524 237.754 137.524C239.793 137.524 241.445 139.175 241.445 141.212C241.445 143.248 239.794 144.903 237.754 144.903C235.719 144.904 234.066 143.248 234.066 141.212Z" fill="#4A4A4A"/>
        <path d="M235.668 141.212C235.668 140.061 236.603 139.127 237.753 139.127C238.905 139.127 239.84 140.061 239.84 141.212C239.84 142.364 238.905 143.299 237.753 143.299C236.603 143.299 235.668 142.365 235.668 141.212Z" fill="#BABABA"/>
        <path d="M236.594 141.212C236.594 140.573 237.114 140.053 237.753 140.053C238.395 140.053 238.915 140.573 238.915 141.212C238.915 141.854 238.394 142.372 237.753 142.372C237.114 142.372 236.594 141.854 236.594 141.212Z" fill="#E0E0E0"/>
        <path d="M222.105 155.264C220.168 154.634 219.107 152.551 219.736 150.616C220.368 148.677 222.448 147.617 224.385 148.247C226.322 148.876 227.384 150.958 226.754 152.897C226.123 154.832 224.043 155.893 222.105 155.264Z" fill="#4A4A4A"/>
        <path d="M222.602 153.738C221.508 153.382 220.908 152.206 221.262 151.113C221.619 150.015 222.795 149.416 223.893 149.772C224.987 150.127 225.587 151.303 225.232 152.399C224.875 153.495 223.698 154.093 222.602 153.738Z" fill="#BABABA"/>
        <path d="M222.888 152.856C222.28 152.659 221.945 152.005 222.142 151.397C222.34 150.788 222.995 150.455 223.604 150.654C224.213 150.85 224.546 151.505 224.35 152.115C224.151 152.721 223.498 153.055 222.888 152.856Z" fill="#E0E0E0"/>
        <path d="M231.773 170.981C230.576 172.629 228.266 172.995 226.618 171.796C224.97 170.6 224.605 168.291 225.805 166.644C227 164.997 229.31 164.629 230.958 165.827C232.604 167.024 232.969 169.333 231.773 170.981Z" fill="#4A4A4A"/>
        <path d="M230.473 170.04C229.796 170.972 228.493 171.179 227.561 170.501C226.627 169.825 226.42 168.521 227.099 167.587C227.775 166.657 229.081 166.449 230.015 167.125C230.944 167.803 231.151 169.109 230.473 170.04Z" fill="#BABABA"/>
        <path d="M229.725 169.496C229.351 170.011 228.625 170.129 228.107 169.751C227.59 169.377 227.473 168.65 227.85 168.132C228.227 167.613 228.952 167.497 229.47 167.873C229.987 168.25 230.105 168.976 229.725 169.496Z" fill="#E0E0E0"/>
        <path d="M249.707 166.646C250.904 168.293 250.537 170.602 248.89 171.798C247.24 172.996 244.934 172.631 243.736 170.981C242.539 169.336 242.904 167.024 244.552 165.827C246.201 164.633 248.509 164.997 249.707 166.646Z" fill="#4A4A4A"/>
        <path d="M248.409 167.588C249.088 168.52 248.881 169.824 247.949 170.5C247.015 171.178 245.713 170.974 245.035 170.037C244.359 169.108 244.565 167.803 245.495 167.124C246.427 166.451 247.735 166.655 248.409 167.588Z" fill="#BABABA"/>
        <path d="M247.659 168.133C248.036 168.651 247.923 169.377 247.403 169.751C246.886 170.129 246.161 170.012 245.786 169.494C245.407 168.975 245.522 168.252 246.043 167.873C246.558 167.497 247.283 167.614 247.659 168.133Z" fill="#E0E0E0"/>
        <path d="M251.127 148.247C253.061 147.616 255.143 148.681 255.774 150.617C256.402 152.555 255.341 154.636 253.402 155.263C251.467 155.894 249.383 154.833 248.754 152.896C248.128 150.959 249.187 148.877 251.127 148.247Z" fill="#4A4A4A"/>
        <path d="M251.624 149.772C252.721 149.416 253.894 150.014 254.252 151.113C254.608 152.209 254.011 153.385 252.91 153.739C251.817 154.093 250.638 153.496 250.281 152.399C249.928 151.307 250.526 150.127 251.624 149.772Z" fill="#BABABA"/>
        <path d="M251.907 150.656C252.515 150.457 253.169 150.789 253.364 151.399C253.564 152.007 253.23 152.661 252.622 152.856C252.011 153.057 251.358 152.721 251.158 152.112C250.96 151.505 251.295 150.851 251.907 150.656Z" fill="#E0E0E0"/>
        <path d="M246.719 156.459C246.719 161.412 242.704 165.426 237.751 165.426C232.8 165.426 228.785 161.412 228.785 156.459C228.785 151.508 232.8 147.493 237.751 147.493C242.704 147.494 246.719 151.508 246.719 156.459Z" fill="#5D5D5D"/>
        <path d="M262.117 203.703C259.039 199.841 253.659 193.086 250.154 188.693L244.125 181.128C240.623 176.736 234.889 176.736 231.386 181.128L225.357 188.693C221.854 193.086 216.472 199.84 213.395 203.703C210.32 207.561 211.706 212.326 216.477 214.29C216.477 214.29 227.063 218.127 237.755 218.127C248.446 218.127 259.035 214.29 259.035 214.29C263.804 212.327 265.192 207.561 262.117 203.703ZM253.835 211.062C253.835 211.062 245.834 213.96 237.754 213.96C229.676 213.96 221.675 211.062 221.675 211.062C218.071 209.577 217.021 205.978 219.346 203.061C221.67 200.143 225.738 195.04 228.384 191.719L232.943 186C235.59 182.68 239.921 182.68 242.568 186L247.125 191.719C249.774 195.039 253.84 200.143 256.166 203.061C258.49 205.978 257.44 209.577 253.835 211.062Z" fill="#C2C2C2"/>
        <path d="M290.202 147.898C285.578 149.632 277.493 152.661 272.231 154.635L263.173 158.032C257.91 160.007 256.139 165.459 259.237 170.145L264.569 178.219C267.663 182.909 272.426 190.114 275.146 194.233C277.865 198.352 282.826 198.504 286.167 194.573C286.167 194.573 293.087 185.692 296.392 175.525C299.695 165.355 299.318 154.1 299.318 154.1C298.924 148.956 294.823 146.163 290.202 147.898ZM294.641 158.047C294.641 158.047 294.927 166.55 292.43 174.235C289.934 181.921 284.704 188.632 284.704 188.632C282.177 191.603 278.431 191.487 276.375 188.377C274.317 185.263 270.721 179.817 268.38 176.274L264.351 170.17C262.012 166.629 263.35 162.508 267.325 161.019L274.171 158.45C278.148 156.959 284.257 154.671 287.753 153.358C291.245 152.049 294.343 154.157 294.641 158.047Z" fill="#C2C2C2"/>
        <path d="M245.81 103.94C246.029 108.871 246.411 117.499 246.664 123.112L247.096 132.778C247.345 138.391 251.985 141.76 257.402 140.265L266.724 137.689C272.142 136.194 280.466 133.89 285.225 132.578C289.983 131.262 291.659 126.593 288.957 122.198C288.957 122.198 282.646 112.874 273.997 106.589C265.345 100.303 254.523 97.1859 254.523 97.1859C249.511 95.9689 245.587 99.0059 245.81 103.94ZM256.832 102.854C256.832 102.854 265.009 105.21 271.547 109.958C278.084 114.708 282.851 121.755 282.851 121.755C284.895 125.076 283.627 128.604 280.034 129.599C276.435 130.592 270.146 132.331 266.055 133.461L259.005 135.407C254.914 136.537 251.408 133.991 251.219 129.75L250.893 122.445C250.701 118.205 250.413 111.686 250.247 107.954C250.079 104.232 253.042 101.934 256.832 102.854Z" fill="#C2C2C2"/>
        <path d="M190.283 132.576C195.04 133.89 203.364 136.196 208.781 137.689L218.105 140.265C223.523 141.763 228.161 138.39 228.41 132.78L228.843 123.112C229.094 117.502 229.479 108.871 229.698 103.94C229.919 99.008 225.996 95.971 220.98 97.187C220.98 97.187 210.162 100.305 201.512 106.588C192.862 112.873 186.551 122.2 186.551 122.2C183.847 126.592 185.523 131.264 190.283 132.576ZM192.655 121.758C192.655 121.758 197.423 114.708 203.96 109.958C210.497 105.21 218.674 102.854 218.674 102.854C222.464 101.934 225.428 104.233 225.263 107.957C225.096 111.684 224.806 118.206 224.617 122.447L224.289 129.753C224.101 133.992 220.595 136.538 216.502 135.409L209.454 133.462C205.362 132.333 199.075 130.593 195.475 129.6C191.88 128.604 190.61 125.079 192.655 121.758Z" fill="#C2C2C2"/>
        <path d="M200.359 194.235C203.083 190.116 207.846 182.912 210.938 178.219L216.27 170.149C219.371 165.459 217.595 160.008 212.335 158.036L203.276 154.636C198.014 152.661 189.926 149.633 185.304 147.899C180.683 146.166 176.581 148.958 176.189 154.101C176.189 154.101 175.813 165.357 179.116 175.526C182.419 185.693 189.341 194.578 189.341 194.578C192.68 198.506 197.641 198.355 200.359 194.235ZM190.804 188.634C190.804 188.634 185.575 181.922 183.077 174.237C180.578 166.552 180.865 158.049 180.865 158.049C181.163 154.156 184.264 152.052 187.756 153.358C191.25 154.671 197.36 156.959 201.338 158.45L208.183 161.021C212.159 162.508 213.496 166.631 211.156 170.172L207.129 176.276C204.79 179.817 201.191 185.262 199.135 188.378C197.076 191.487 193.331 191.606 190.804 188.634Z" fill="#C2C2C2"/>
        <path d="M244.306 156.459C244.306 160.078 241.371 163.013 237.751 163.013C234.133 163.013 231.199 160.078 231.199 156.459C231.199 152.84 234.133 149.906 237.751 149.906C241.371 149.907 244.306 152.84 244.306 156.459Z" fill="#2A2A2A"/>
    </g>
    <path d="M237.573 227.948L155.559 227.751C155.756 225.192 156.974 224.126 158.456 222.831C160.03 221.452 163.325 219.721 163.325 215.811C163.325 215.811 214.961 224.283 237.569 224.491" fill="#5D5D5D"/>
    <path d="M237.574 224.488C225.783 224.017 206.656 221.464 190.438 219.863C190.438 219.863 194.451 222.776 200.654 224.476C205.997 225.943 227.47 226.192 237.574 226.307" fill="#4A4A4A"/>
    <path d="M185.498 223.139C185.523 223.147 185.555 223.154 185.581 223.161C185.033 222.888 184.596 222.599 184.215 222.307C184.466 222.651 184.814 222.912 185.498 223.139Z" fill="#5D5D5D"/>
    <path d="M209.821 227.831C209.252 227.849 208.699 227.858 208.176 227.858C202.342 227.858 199.18 226.806 196.565 225.938C194.964 225.403 193.581 224.943 191.858 224.77C189.096 224.495 187.037 223.884 185.583 223.161C185.557 223.154 185.525 223.147 185.5 223.139C184.816 222.911 184.468 222.651 184.217 222.307C183.583 221.82 183.147 221.323 182.943 220.867C182.44 219.754 181.255 218.812 180.831 218.499C180.285 218.42 179.749 218.341 179.223 218.261C179.521 218.56 180.227 219.236 181.473 220.31C182.193 220.931 182.47 221.51 182.739 222.068C183.135 222.888 183.543 223.737 185.133 224.261C186.222 224.62 187.843 224.87 189.557 225.138C191.629 225.463 193.77 225.795 194.891 226.314C195.581 226.632 197.239 227.31 199.8 227.857L209.825 227.882L209.821 227.831Z" fill="#767676"/>
    <path d="M182.244 219.415C183.147 220.197 183.512 220.95 183.801 221.556C183.943 221.845 184.062 222.092 184.218 222.308C184.599 222.6 185.036 222.888 185.584 223.162C186.584 223.477 188.113 223.72 189.738 223.973C191.89 224.309 194.114 224.654 195.386 225.242C198.074 226.486 203.265 227.73 209.805 227.447L209.823 227.832C210.262 227.818 210.709 227.802 211.178 227.775L211.145 227.185C203.444 227.608 199.892 226.421 196.754 225.376C195.187 224.856 193.705 224.362 191.918 224.184C186.976 223.689 184.119 222.039 183.48 220.627C183.126 219.844 182.37 219.138 181.829 218.646C181.601 218.611 181.503 218.597 181.277 218.564C181.553 218.812 181.871 219.092 182.244 219.415Z" fill="#3F3F3F"/>
    <path d="M195.384 225.241C194.111 224.653 191.888 224.308 189.736 223.972C188.111 223.718 186.582 223.476 185.582 223.161C187.036 223.885 189.096 224.495 191.857 224.77C193.58 224.943 194.964 225.403 196.564 225.938C199.179 226.806 202.341 227.858 208.175 227.858C208.698 227.858 209.251 227.848 209.82 227.831L209.802 227.446C203.263 227.729 198.072 226.485 195.384 225.241Z" fill="#3F3F3F"/>
    <path d="M182.245 219.415C181.873 219.093 181.555 218.812 181.278 218.563C181.129 218.54 180.977 218.52 180.832 218.499C181.257 218.812 182.441 219.754 182.944 220.867C183.148 221.323 183.585 221.82 184.218 222.307C184.062 222.091 183.943 221.844 183.801 221.555C183.512 220.95 183.148 220.197 182.245 219.415Z" fill="#3F3F3F"/>
    <path d="M173.765 217.446C173.765 217.446 169.543 217.654 169.205 218.563C169.045 218.989 166.719 221.979 166.719 221.979L170.568 222.307L172.76 219.877L176.339 219.637L177.62 217.887L173.765 217.446Z" fill="#4A4A4A"/>
    <path d="M176.785 220.403C176.785 220.403 173.503 220.862 173.488 221.007C173.474 221.154 171.65 223.16 171.65 223.16L168.449 223.697L169.565 225.024L171.65 223.697L173.488 222.306L175.346 221.295L177.619 221.232L176.785 220.403Z" fill="#4A4A4A"/>
    <path d="M237.57 227.953L319.886 227.788C319.689 225.229 318.473 224.163 316.99 222.866C315.414 221.488 312.121 219.758 312.121 215.847C312.121 215.847 260.179 224.286 237.57 224.494" fill="#5D5D5D"/>
    <path d="M237.571 224.493C249.4 224.091 268.68 221.698 285.012 219.899C285.012 219.899 280.998 222.813 274.795 224.512C269.451 225.979 247.672 226.198 237.57 226.312" fill="#4A4A4A"/>
    <path d="M289.947 223.175C289.923 223.182 289.888 223.19 289.863 223.198C290.412 222.925 290.849 222.636 291.229 222.343C290.98 222.687 290.633 222.949 289.947 223.175Z" fill="#5D5D5D"/>
    <path d="M265.623 227.868C266.192 227.887 266.746 227.896 267.269 227.896C273.103 227.896 276.266 226.844 278.879 225.973C280.481 225.44 281.866 224.979 283.589 224.809C286.348 224.53 288.407 223.919 289.862 223.199C289.887 223.19 289.922 223.182 289.946 223.176C290.633 222.949 290.979 222.688 291.228 222.344C291.862 221.858 292.298 221.36 292.503 220.904C293.007 219.793 294.189 218.851 294.615 218.537C295.161 218.457 295.698 218.378 296.224 218.299C295.925 218.598 295.217 219.274 293.974 220.348C293.255 220.967 292.975 221.548 292.707 222.107C292.312 222.927 291.904 223.776 290.312 224.297C289.223 224.658 287.604 224.91 285.888 225.178C283.817 225.5 281.677 225.833 280.554 226.354C279.864 226.67 278.208 227.349 275.645 227.896L265.621 227.921V227.868H265.623Z" fill="#767676"/>
    <path d="M293.206 219.452C292.302 220.233 291.938 220.987 291.647 221.592C291.505 221.883 291.386 222.13 291.231 222.344C290.851 222.638 290.414 222.926 289.865 223.199C288.865 223.514 287.337 223.756 285.71 224.007C283.561 224.345 281.335 224.692 280.063 225.277C277.375 226.522 272.183 227.767 265.643 227.483L265.625 227.869C265.187 227.855 264.74 227.838 264.273 227.812L264.304 227.222C272.004 227.644 275.559 226.458 278.696 225.413C280.262 224.891 281.744 224.399 283.531 224.22C288.474 223.726 291.329 222.075 291.969 220.662C292.322 219.88 293.15 219.164 293.69 218.671C293.92 218.639 293.948 218.632 294.173 218.602C293.896 218.85 293.577 219.13 293.206 219.452Z" fill="#3F3F3F"/>
    <path d="M280.062 225.276C281.334 224.692 283.559 224.344 285.709 224.006C287.336 223.755 288.864 223.514 289.864 223.198C288.409 223.919 286.349 224.529 283.591 224.808C281.868 224.978 280.483 225.439 278.881 225.972C276.268 226.843 273.105 227.895 267.271 227.895C266.748 227.895 266.194 227.885 265.625 227.867L265.643 227.481C272.182 227.766 277.373 226.521 280.062 225.276Z" fill="#3F3F3F"/>
    <path d="M293.204 219.452C293.574 219.131 293.894 218.85 294.171 218.601C294.32 218.578 294.471 218.557 294.617 218.536C294.191 218.85 293.009 219.792 292.505 220.903C292.3 221.359 291.863 221.857 291.23 222.343C291.385 222.129 291.504 221.882 291.646 221.591C291.937 220.987 292.3 220.233 293.204 219.452Z" fill="#3F3F3F"/>
    <path d="M301.682 217.483C301.682 217.483 305.905 217.688 306.246 218.601C306.404 219.026 308.728 222.015 308.728 222.015L304.879 222.343L302.687 219.912L299.108 219.672L297.828 217.924L301.682 217.483Z" fill="#4A4A4A"/>
    <path d="M298.66 220.439C298.66 220.439 301.943 220.898 301.958 221.045C301.973 221.191 303.798 223.198 303.798 223.198L306.997 223.735L305.88 225.06L303.798 223.735L301.958 222.342L300.102 221.331L297.828 221.269L298.66 220.439Z" fill="#4A4A4A"/>
    <path d="M223.224 224.376C223.1 224.537 222.803 224.754 222.665 224.949C222.51 225.148 222.429 225.34 222.383 225.455C222.502 225.387 222.636 225.251 222.817 225.1C222.912 225.025 223.012 224.944 223.118 224.859C223.226 224.782 223.371 224.7 223.485 224.514C223.59 224.324 223.517 224.067 223.458 223.965C223.389 223.848 223.418 223.802 223.453 223.695C223.553 223.505 223.706 223.379 223.788 223.278C223.666 223.303 223.458 223.365 223.275 223.58C223.235 223.635 223.199 223.718 223.167 223.795C223.162 223.889 223.173 223.993 223.202 224.06C223.257 224.217 223.264 224.274 223.224 224.376Z" fill="#5D5D5D"/>
    <path d="M226 224.649C225.908 224.797 225.71 224.913 225.57 225.055C225.416 225.188 225.373 225.382 225.39 225.475C225.467 225.395 225.541 225.298 225.701 225.225C225.846 225.133 226.074 225.061 226.247 224.809C226.411 224.528 226.336 224.268 226.313 224.098C226.27 223.922 226.281 223.793 226.258 223.684C226.2 223.755 226.108 223.91 226.1 224.107C226.078 224.295 226.089 224.509 226 224.649Z" fill="#5D5D5D"/>
    <path d="M229.542 224.879C229.325 225.157 229.027 225.513 229.085 225.715C229.211 225.557 229.486 225.434 229.793 225.034C230.026 224.546 229.846 224.177 229.785 224.016C229.687 224.172 229.697 224.591 229.542 224.879Z" fill="#5D5D5D"/>
    <path d="M232.872 224.911C232.831 225.114 232.81 225.282 232.765 225.419C232.716 225.558 232.696 225.741 232.757 225.808C232.789 225.71 232.856 225.654 232.958 225.512C233.061 225.37 233.123 225.164 233.161 224.97C233.253 224.573 233.202 224.17 233.09 224.034C233.027 224.213 232.958 224.51 232.872 224.911Z" fill="#5D5D5D"/>
    <path d="M235.507 225C235.45 225.168 235.349 225.365 235.293 225.523C235.25 225.701 235.251 225.853 235.27 225.935C235.34 225.857 235.408 225.746 235.485 225.615C235.587 225.48 235.701 225.337 235.786 225.097C235.935 224.608 235.76 224.253 235.694 224.089C235.594 224.254 235.626 224.661 235.507 225Z" fill="#5D5D5D"/>
    <path d="M238.49 225.158C238.42 225.254 238.282 225.385 238.22 225.524C238.13 225.665 238.193 225.853 238.279 225.862C238.248 225.679 238.465 225.646 238.737 225.319C238.922 224.883 238.753 224.661 238.85 224.532C238.621 224.51 238.575 224.987 238.49 225.158Z" fill="#5D5D5D"/>
    <path d="M241.139 225.055C240.735 225.389 240.469 225.741 240.254 225.696C240.317 225.816 240.555 225.793 240.739 225.696C240.935 225.603 241.132 225.444 241.327 225.282C241.367 225.252 241.403 225.219 241.44 225.19L241.425 225.199C241.527 225.134 241.622 225.072 241.718 225.011C241.793 224.923 241.857 224.833 241.908 224.75C241.994 224.566 241.998 224.447 242.026 224.348C241.827 224.474 241.729 224.801 241.296 224.937L241.291 224.939L241.283 224.946C241.241 224.978 241.18 225.016 241.139 225.055Z" fill="#5D5D5D"/>
    <path d="M244.766 224.792C244.407 225.211 244.384 225.562 244.223 225.695C244.466 225.732 244.728 225.281 244.968 225.007C245.1 224.886 245.35 224.736 245.404 224.517C245.471 224.307 245.403 224.165 245.385 224.07C245.322 224.145 245.3 224.312 245.208 224.427C245.138 224.557 244.973 224.613 244.766 224.792Z" fill="#5D5D5D"/>
    <path d="M248.992 224.446C248.912 224.707 248.811 224.967 248.817 225.176C248.829 225.389 248.857 225.557 248.894 225.658C248.944 225.556 248.992 225.397 249.028 225.204C249.075 225.01 249.186 224.818 249.255 224.578C249.481 224.015 249.38 223.591 249.394 223.37C249.222 223.524 249.161 224.037 248.992 224.446Z" fill="#5D5D5D"/>
    <path d="M252.856 224.208C252.731 224.657 252.584 225.059 252.586 225.271C252.739 225.134 253.001 224.788 253.141 224.284C253.293 223.766 253.086 223.282 252.917 223.169C252.93 223.385 252.982 223.757 252.856 224.208Z" fill="#5D5D5D"/>
    <path d="M197.224 218.135C198.855 216.707 200.476 215.804 201.192 215.346C200.405 215.642 198.684 216.463 197.03 217.911C196.257 218.647 195.379 219.306 195.134 220.186C194.993 220.594 194.933 220.971 194.818 221.269C194.714 221.578 194.547 221.787 194.402 221.944C194.574 221.825 194.786 221.624 194.929 221.316C195.082 221.014 195.174 220.639 195.335 220.26C195.594 219.473 196.439 218.879 197.224 218.135Z" fill="#5D5D5D"/>
    <path d="M200.97 219.77C201.478 218.965 202.158 218.36 202.722 217.866C203.296 217.377 203.772 216.993 204.047 216.724C203.719 216.922 203.202 217.245 202.59 217.701C201.985 218.162 201.262 218.759 200.72 219.614C200.169 220.486 200.108 221.444 199.746 222.073C199.396 222.721 198.804 222.979 198.484 223.174C198.829 223.059 199.487 222.87 199.928 222.182C200.368 221.509 200.461 220.557 200.97 219.77Z" fill="#5D5D5D"/>
    <path d="M205.392 220.997C206.213 219.819 207.246 219.015 207.592 218.547C207.13 218.889 206.028 219.578 205.144 220.835C204.923 221.154 204.75 221.469 204.608 221.768C204.458 222.065 204.291 222.323 204.136 222.557C203.806 223.016 203.433 223.272 203.211 223.47C203.469 223.348 203.91 223.143 204.304 222.689C204.487 222.463 204.682 222.196 204.848 221.902C205.006 221.596 205.187 221.29 205.392 220.997Z" fill="#5D5D5D"/>
    <path d="M208.792 222.502C209.058 221.886 209.333 221.338 209.605 220.898C209.873 220.461 210.165 220.159 210.3 219.923C210.107 220.095 209.753 220.354 209.429 220.778C209.103 221.201 208.791 221.758 208.522 222.383C208.243 223.007 208.08 223.602 207.708 223.949C207.355 224.314 207.052 224.63 206.902 224.846C207.119 224.687 207.45 224.445 207.859 224.099C208.305 223.755 208.529 223.096 208.792 222.502Z" fill="#5D5D5D"/>
    <path d="M213.087 222.852C213.406 222.098 213.888 221.49 213.991 221.157C213.746 221.396 213.176 221.899 212.812 222.745C212.746 222.969 212.654 223.17 212.655 223.39C212.657 223.583 212.659 223.765 212.66 223.936C212.643 224.236 212.429 224.421 212.316 224.553C212.464 224.497 212.778 224.363 212.869 223.966C212.92 223.587 212.912 223.236 213.087 222.852Z" fill="#5D5D5D"/>
    <path d="M216.839 223.233C217.187 222.716 217.459 222.243 217.535 221.993C217.317 222.139 216.949 222.54 216.589 223.075C216.444 223.366 216.278 223.623 216.227 223.876C216.174 224.129 216.152 224.33 216.157 224.455C216.313 224.226 216.507 223.758 216.839 223.233Z" fill="#5D5D5D"/>
    <path d="M281.267 216.465C280.876 214.129 280.228 212.182 279.953 211.31C280.062 212.239 280.587 214.185 280.977 216.521C281.476 218.818 281.789 220.874 281.234 221.698C281.565 221.352 281.747 220.57 281.717 219.648C281.712 218.712 281.484 217.623 281.267 216.465Z" fill="#5D5D5D"/>
    <path d="M278.165 218.403C278.023 217.328 277.826 216.346 277.62 215.544C277.432 214.734 277.317 214.081 277.199 213.675C277.229 214.088 277.273 214.763 277.412 215.585C277.566 216.403 277.732 217.381 277.87 218.43C277.878 218.958 277.888 219.466 277.894 219.947C277.865 220.43 277.836 220.885 277.812 221.299C277.734 222.115 277.659 222.793 277.396 223.127C277.733 222.843 277.896 222.14 278.023 221.322C278.086 220.91 278.128 220.449 278.168 219.968C278.18 219.477 278.167 218.949 278.165 218.403Z" fill="#5D5D5D"/>
    <path d="M274.921 219.703C274.811 217.616 274.71 215.865 274.588 215.052C274.536 215.849 274.517 217.654 274.625 219.711C274.638 220.222 274.707 220.735 274.679 221.183C274.646 221.632 274.53 222.06 274.447 222.458C274.254 223.238 274.252 223.937 274.441 224.308C274.337 223.907 274.415 223.274 274.655 222.506C274.761 222.121 274.899 221.695 274.953 221.205C274.997 220.714 274.934 220.227 274.921 219.703Z" fill="#5D5D5D"/>
    <path d="M270.779 220.983C270.702 219.296 270.781 217.885 270.702 217.218C270.608 217.853 270.405 219.314 270.483 220.983C270.646 222.653 270.045 224.01 270.159 224.7C270.239 224.377 270.348 223.878 270.547 223.257C270.762 222.637 270.819 221.807 270.779 220.983Z" fill="#5D5D5D"/>
    <path d="M267.083 222.509C267.227 221.158 267.03 220.044 266.96 219.531C266.858 220.039 266.929 221.193 266.791 222.466C266.691 222.766 266.696 223.148 266.536 223.345C266.458 223.458 266.344 223.559 266.247 223.696C266.146 223.845 266.134 224.037 266.172 224.181L266.17 224.172C266.288 224.526 266.601 224.497 266.714 224.591C266.856 224.668 266.706 224.849 266.663 224.945C266.71 224.898 266.759 224.848 266.811 224.792C266.855 224.722 266.885 224.595 266.786 224.507C266.629 224.371 266.384 224.3 266.37 224.146V224.143L266.369 224.137C266.319 223.908 266.507 223.78 266.749 223.51C266.876 223.37 266.923 223.188 266.956 223.028C267 222.859 267.041 222.684 267.083 222.509Z" fill="#5D5D5D"/>
    <path d="M263.804 223.103C263.958 222.531 263.906 222.011 263.902 221.591C263.878 221.165 263.902 220.835 263.906 220.614C263.817 220.809 263.717 221.154 263.689 221.584C263.645 222.009 263.657 222.525 263.522 223.019C263.414 223.534 262.962 223.746 262.626 224.053C262.252 224.366 262.276 224.807 262.333 224.996C262.366 224.779 262.416 224.437 262.764 224.217C263.062 224.004 263.667 223.727 263.804 223.103Z" fill="#5D5D5D"/>
    <path d="M259.724 223.436C259.916 223.033 260.138 222.678 260.207 222.334C260.275 221.99 260.312 221.717 260.313 221.549C260.225 221.706 260.118 221.955 260.005 222.264C259.898 222.572 259.652 222.899 259.473 223.279C259.222 223.625 259.018 223.966 258.815 224.226C258.6 224.478 258.436 224.696 258.344 224.849C258.49 224.761 258.71 224.595 258.973 224.37C259.225 224.133 259.464 223.795 259.724 223.436Z" fill="#5D5D5D"/>
    <path d="M256.882 223.682C256.749 223.139 256.688 222.774 256.673 222.534C256.628 222.621 256.51 222.786 256.516 223.005C256.49 223.23 256.553 223.482 256.592 223.726C256.725 224.214 256.245 224.345 256.082 224.504C256.184 224.5 256.366 224.517 256.573 224.414C256.818 224.329 256.946 223.959 256.882 223.682Z" fill="#5D5D5D"/>
    <path d="M101.037 105.36C94.7966 113.52 88.1566 122.4 81.1166 132C74.0766 141.6 68.1566 151.44 63.3566 161.52H101.037V105.36ZM136.077 61.68V161.52H153.837V190.8H136.077V228H101.037V190.8H29.2766V164.64C32.7966 157.6 37.1966 149.68 42.4766 140.88C47.7566 131.92 53.5966 122.8 59.9966 113.52C66.5566 104.08 73.4366 94.88 80.6366 85.92C87.8366 76.96 95.0366 68.88 102.237 61.68H136.077Z" fill="#334155"/>
</svg>
