<svg width="151" height="40" viewBox="0 0 151 40" fill="none" xmlns="http://www.w3.org/2000/svg">
    <path fill-rule="evenodd" clip-rule="evenodd"
          d="M5.71429 0H34.2857C37.4416 0 40 2.55837 40 5.71429V34.2857C40 37.4416 37.4416 40 34.2857 40H5.71429C2.55837 40 0 37.4416 0 34.2857V5.71429C0 2.55837 2.55837 0 5.71429 0Z"
          fill="#2563EB"/>
    <path d="M25.55 30.0902C25.3364 29.3913 25.0937 28.673 24.822 27.9353C24.5696 27.1976 24.3172 26.4599 24.0648 25.7222H16.2025C15.9501 26.4599 15.6881 27.1976 15.4163 27.9353C15.1639 28.673 14.9309 29.3913 14.7174 30.0902H10C10.7571 27.9159 11.4754 25.9066 12.1549 24.0624C12.8343 22.2181 13.4944 20.4806 14.135 18.8499C14.7951 17.2192 15.4357 15.6759 16.0569 14.2199C16.6975 12.7445 17.3576 11.3079 18.0371 9.91016H22.3759C23.036 11.3079 23.6863 12.7445 24.3269 14.2199C24.9676 15.6759 25.6082 17.2192 26.2488 18.8499C26.9089 20.4806 27.5786 22.2181 28.2581 24.0624C28.9376 25.9066 29.6558 27.9159 30.413 30.0902H25.55ZM20.1046 14.482C20.0075 14.7732 19.8619 15.1711 19.6678 15.6759C19.4736 16.1806 19.2504 16.763 18.998 17.4231C18.7456 18.0831 18.4641 18.8111 18.1535 19.607C17.8623 20.403 17.5614 21.2377 17.2508 22.1113H22.9874C22.6768 21.2377 22.3759 20.403 22.0847 19.607C21.7935 18.8111 21.512 18.0831 21.2402 17.4231C20.9879 16.763 20.7646 16.1806 20.5705 15.6759C20.3763 15.1711 20.221 14.7732 20.1046 14.482Z"
          fill="white"/>
    <path d="M61.774 27C61.606 26.508 61.432 26.022 61.252 25.542C61.072 25.062 60.898 24.57 60.73 24.066H55.474C55.306 24.57 55.132 25.068 54.952 25.56C54.784 26.04 54.616 26.52 54.448 27H52.09C52.558 25.668 53.002 24.438 53.422 23.31C53.842 22.182 54.25 21.114 54.646 20.106C55.054 19.098 55.456 18.138 55.852 17.226C56.248 16.314 56.656 15.414 57.076 14.526H59.218C59.638 15.414 60.046 16.314 60.442 17.226C60.838 18.138 61.234 19.098 61.63 20.106C62.038 21.114 62.452 22.182 62.872 23.31C63.304 24.438 63.754 25.668 64.222 27H61.774ZM58.102 16.938C57.826 17.574 57.508 18.348 57.148 19.26C56.8 20.172 56.434 21.162 56.05 22.23H60.154C59.77 21.162 59.398 20.166 59.038 19.242C58.678 18.318 58.366 17.55 58.102 16.938ZM64.9226 22.302C64.9226 21.606 65.0306 20.958 65.2466 20.358C65.4626 19.746 65.7686 19.218 66.1646 18.774C66.5726 18.33 67.0646 17.982 67.6406 17.73C68.2166 17.478 68.8646 17.352 69.5846 17.352C70.4726 17.352 71.3126 17.514 72.1046 17.838L71.6366 19.62C71.3846 19.512 71.0966 19.422 70.7726 19.35C70.4606 19.278 70.1246 19.242 69.7646 19.242C68.9126 19.242 68.2646 19.512 67.8206 20.052C67.3766 20.58 67.1546 21.33 67.1546 22.302C67.1546 23.238 67.3646 23.982 67.7846 24.534C68.2046 25.074 68.9126 25.344 69.9086 25.344C70.2806 25.344 70.6466 25.308 71.0066 25.236C71.3666 25.164 71.6786 25.074 71.9426 24.966L72.2486 26.766C72.0086 26.886 71.6426 26.994 71.1506 27.09C70.6706 27.186 70.1726 27.234 69.6566 27.234C68.8526 27.234 68.1506 27.114 67.5506 26.874C66.9626 26.622 66.4706 26.28 66.0746 25.848C65.6906 25.404 65.4026 24.882 65.2106 24.282C65.0186 23.67 64.9226 23.01 64.9226 22.302ZM79.2988 22.05C79.2988 21.066 79.1728 20.358 78.9208 19.926C78.6808 19.482 78.2248 19.26 77.5528 19.26C77.3128 19.26 77.0488 19.278 76.7608 19.314C76.4728 19.35 76.2568 19.38 76.1128 19.404V27H73.9348V17.892C74.3548 17.772 74.9008 17.658 75.5728 17.55C76.2568 17.442 76.9768 17.388 77.7328 17.388C78.3808 17.388 78.9088 17.472 79.3168 17.64C79.7368 17.808 80.0848 18.03 80.3608 18.306C80.4928 18.21 80.6608 18.108 80.8648 18C81.0688 17.892 81.2968 17.796 81.5488 17.712C81.8008 17.616 82.0648 17.538 82.3408 17.478C82.6288 17.418 82.9168 17.388 83.2048 17.388C83.9368 17.388 84.5368 17.496 85.0048 17.712C85.4848 17.916 85.8568 18.21 86.1208 18.594C86.3968 18.966 86.5828 19.422 86.6788 19.962C86.7868 20.49 86.8408 21.072 86.8408 21.708V27H84.6628V22.05C84.6628 21.066 84.5428 20.358 84.3028 19.926C84.0628 19.482 83.6008 19.26 82.9168 19.26C82.5688 19.26 82.2388 19.32 81.9268 19.44C81.6148 19.548 81.3808 19.656 81.2248 19.764C81.3208 20.064 81.3868 20.382 81.4228 20.718C81.4588 21.054 81.4768 21.414 81.4768 21.798V27H79.2988V22.05ZM88.987 22.338C88.987 21.51 89.107 20.784 89.347 20.16C89.599 19.536 89.929 19.02 90.337 18.612C90.745 18.192 91.213 17.88 91.741 17.676C92.269 17.46 92.809 17.352 93.361 17.352C94.657 17.352 95.665 17.754 96.385 18.558C97.117 19.362 97.483 20.562 97.483 22.158C97.483 22.278 97.477 22.416 97.465 22.572C97.465 22.716 97.459 22.848 97.447 22.968H91.237C91.297 23.724 91.561 24.312 92.029 24.732C92.509 25.14 93.199 25.344 94.099 25.344C94.627 25.344 95.107 25.296 95.539 25.2C95.983 25.104 96.331 25.002 96.583 24.894L96.871 26.676C96.751 26.736 96.583 26.802 96.367 26.874C96.163 26.934 95.923 26.988 95.647 27.036C95.383 27.096 95.095 27.144 94.783 27.18C94.471 27.216 94.153 27.234 93.829 27.234C93.001 27.234 92.281 27.114 91.669 26.874C91.057 26.622 90.553 26.28 90.157 25.848C89.761 25.404 89.467 24.888 89.275 24.3C89.083 23.7 88.987 23.046 88.987 22.338ZM95.305 21.366C95.305 21.066 95.263 20.784 95.179 20.52C95.095 20.244 94.969 20.01 94.801 19.818C94.645 19.614 94.447 19.458 94.207 19.35C93.979 19.23 93.703 19.17 93.379 19.17C93.043 19.17 92.749 19.236 92.497 19.368C92.245 19.488 92.029 19.65 91.849 19.854C91.681 20.058 91.549 20.292 91.453 20.556C91.357 20.82 91.291 21.09 91.255 21.366H95.305ZM111.985 25.038V27H104.101V14.526H106.369V25.038H111.985ZM112.911 22.338C112.911 21.51 113.031 20.784 113.271 20.16C113.523 19.536 113.853 19.02 114.261 18.612C114.669 18.192 115.137 17.88 115.665 17.676C116.193 17.46 116.733 17.352 117.285 17.352C118.581 17.352 119.589 17.754 120.309 18.558C121.041 19.362 121.407 20.562 121.407 22.158C121.407 22.278 121.401 22.416 121.389 22.572C121.389 22.716 121.383 22.848 121.371 22.968H115.161C115.221 23.724 115.485 24.312 115.953 24.732C116.433 25.14 117.123 25.344 118.023 25.344C118.551 25.344 119.031 25.296 119.463 25.2C119.907 25.104 120.255 25.002 120.507 24.894L120.795 26.676C120.675 26.736 120.507 26.802 120.291 26.874C120.087 26.934 119.847 26.988 119.571 27.036C119.307 27.096 119.019 27.144 118.707 27.18C118.395 27.216 118.077 27.234 117.753 27.234C116.925 27.234 116.205 27.114 115.593 26.874C114.981 26.622 114.477 26.28 114.081 25.848C113.685 25.404 113.391 24.888 113.199 24.3C113.007 23.7 112.911 23.046 112.911 22.338ZM119.229 21.366C119.229 21.066 119.187 20.784 119.103 20.52C119.019 20.244 118.893 20.01 118.725 19.818C118.569 19.614 118.371 19.458 118.131 19.35C117.903 19.23 117.627 19.17 117.303 19.17C116.967 19.17 116.673 19.236 116.421 19.368C116.169 19.488 115.953 19.65 115.773 19.854C115.605 20.058 115.473 20.292 115.377 20.556C115.281 20.82 115.215 21.09 115.179 21.366H119.229ZM127.028 25.47C127.7 25.47 128.21 25.434 128.558 25.362V22.95C128.438 22.914 128.264 22.878 128.036 22.842C127.808 22.806 127.556 22.788 127.28 22.788C127.04 22.788 126.794 22.806 126.542 22.842C126.302 22.878 126.08 22.944 125.876 23.04C125.684 23.136 125.528 23.274 125.408 23.454C125.288 23.622 125.228 23.838 125.228 24.102C125.228 24.618 125.39 24.978 125.714 25.182C126.038 25.374 126.476 25.47 127.028 25.47ZM126.848 17.352C127.568 17.352 128.174 17.442 128.666 17.622C129.158 17.802 129.548 18.054 129.836 18.378C130.136 18.702 130.346 19.098 130.466 19.566C130.598 20.022 130.664 20.526 130.664 21.078V26.784C130.328 26.856 129.818 26.94 129.134 27.036C128.462 27.144 127.7 27.198 126.848 27.198C126.284 27.198 125.768 27.144 125.3 27.036C124.832 26.928 124.43 26.754 124.094 26.514C123.77 26.274 123.512 25.962 123.32 25.578C123.14 25.194 123.05 24.72 123.05 24.156C123.05 23.616 123.152 23.16 123.356 22.788C123.572 22.416 123.86 22.116 124.22 21.888C124.58 21.648 124.994 21.48 125.462 21.384C125.942 21.276 126.44 21.222 126.956 21.222C127.196 21.222 127.448 21.24 127.712 21.276C127.976 21.3 128.258 21.348 128.558 21.42V21.06C128.558 20.808 128.528 20.568 128.468 20.34C128.408 20.112 128.3 19.914 128.144 19.746C128 19.566 127.802 19.428 127.55 19.332C127.31 19.236 127.004 19.188 126.632 19.188C126.128 19.188 125.666 19.224 125.246 19.296C124.826 19.368 124.484 19.452 124.22 19.548L123.95 17.784C124.226 17.688 124.628 17.592 125.156 17.496C125.684 17.4 126.248 17.352 126.848 17.352ZM135.689 25.434C136.265 25.434 136.685 25.368 136.949 25.236C137.213 25.092 137.345 24.852 137.345 24.516C137.345 24.204 137.201 23.946 136.913 23.742C136.637 23.538 136.175 23.316 135.527 23.076C135.131 22.932 134.765 22.782 134.429 22.626C134.105 22.458 133.823 22.266 133.583 22.05C133.343 21.834 133.151 21.576 133.007 21.276C132.875 20.964 132.809 20.586 132.809 20.142C132.809 19.278 133.127 18.6 133.763 18.108C134.399 17.604 135.263 17.352 136.355 17.352C136.907 17.352 137.435 17.406 137.939 17.514C138.443 17.61 138.821 17.706 139.073 17.802L138.677 19.566C138.437 19.458 138.131 19.362 137.759 19.278C137.387 19.182 136.955 19.134 136.463 19.134C136.019 19.134 135.659 19.212 135.383 19.368C135.107 19.512 134.969 19.74 134.969 20.052C134.969 20.208 134.993 20.346 135.041 20.466C135.101 20.586 135.197 20.7 135.329 20.808C135.461 20.904 135.635 21.006 135.851 21.114C136.067 21.21 136.331 21.312 136.643 21.42C137.159 21.612 137.597 21.804 137.957 21.996C138.317 22.176 138.611 22.386 138.839 22.626C139.079 22.854 139.253 23.118 139.361 23.418C139.469 23.718 139.523 24.078 139.523 24.498C139.523 25.398 139.187 26.082 138.515 26.55C137.855 27.006 136.907 27.234 135.671 27.234C134.843 27.234 134.177 27.162 133.673 27.018C133.169 26.886 132.815 26.778 132.611 26.694L132.989 24.876C133.313 25.008 133.697 25.134 134.141 25.254C134.597 25.374 135.113 25.434 135.689 25.434ZM141.036 22.338C141.036 21.51 141.156 20.784 141.396 20.16C141.648 19.536 141.978 19.02 142.386 18.612C142.794 18.192 143.262 17.88 143.79 17.676C144.318 17.46 144.858 17.352 145.41 17.352C146.706 17.352 147.714 17.754 148.434 18.558C149.166 19.362 149.532 20.562 149.532 22.158C149.532 22.278 149.526 22.416 149.514 22.572C149.514 22.716 149.508 22.848 149.496 22.968H143.286C143.346 23.724 143.61 24.312 144.078 24.732C144.558 25.14 145.248 25.344 146.148 25.344C146.676 25.344 147.156 25.296 147.588 25.2C148.032 25.104 148.38 25.002 148.632 24.894L148.92 26.676C148.8 26.736 148.632 26.802 148.416 26.874C148.212 26.934 147.972 26.988 147.696 27.036C147.432 27.096 147.144 27.144 146.832 27.18C146.52 27.216 146.202 27.234 145.878 27.234C145.05 27.234 144.33 27.114 143.718 26.874C143.106 26.622 142.602 26.28 142.206 25.848C141.81 25.404 141.516 24.888 141.324 24.3C141.132 23.7 141.036 23.046 141.036 22.338ZM147.354 21.366C147.354 21.066 147.312 20.784 147.228 20.52C147.144 20.244 147.018 20.01 146.85 19.818C146.694 19.614 146.496 19.458 146.256 19.35C146.028 19.23 145.752 19.17 145.428 19.17C145.092 19.17 144.798 19.236 144.546 19.368C144.294 19.488 144.078 19.65 143.898 19.854C143.73 20.058 143.598 20.292 143.502 20.556C143.406 20.82 143.34 21.09 143.304 21.366H147.354Z"
          fill="#334155"/>
</svg>
